<?xml version="1.0" encoding="UTF-8"?>
<svg id="Layer_1" xmlns="http://www.w3.org/2000/svg" version="1.1" viewBox="0 0 800 800">
  <!-- Generator: Adobe Illustrator 30.2.1, SVG Export Plug-In . SVG Version: 2.1.1 Build 1)  -->
  <defs>
    <style>
      .st0 {
        fill-rule: evenodd;
      }
    </style>
  </defs>
  <path class="st0" d="M400,148.62c-77.07-68.95-163.37-78.6-233.31-46.63-73.87,33.77-125.03,112.17-125.03,202.57s37.02,156.63,85.56,211.29c38.87,43.77,86.45,80.41,128.47,112.76,9.53,7.33,18.77,14.45,27.55,21.38,17.07,13.46,35.4,27.81,53.98,38.67,18.57,10.85,39.76,19.67,62.77,19.67s44.2-8.82,62.77-19.67c18.58-10.85,36.9-25.21,53.98-38.67,8.79-6.93,18.03-14.04,27.55-21.38,42.02-32.35,89.6-68.99,128.47-112.76,48.54-54.66,85.56-122.44,85.56-211.29s-51.16-168.81-125.03-202.57c-69.94-31.97-156.24-22.32-233.31,46.63Z"/>
</svg>