<?xml version="1.0" encoding="UTF-8"?>
<svg id="Layer_1" xmlns="http://www.w3.org/2000/svg" version="1.1" viewBox="0 0 800 800">
  <!-- Generator: Adobe Illustrator 30.2.1, SVG Export Plug-In . SVG Version: 2.1.1 Build 1)  -->
  <defs>
    <style>
      .st0 {
        fill: #231f20;
      }
    </style>
  </defs>
  <path class="st0" d="M695.79,632.76c12.68-24.76,13.87-51.04,3.53-78.11-9.01-23.58-34.19-85.99-73.46-155.98l-1.11-1.98,1.86-1.3c43.12-30.06,56.41-64.79,40.64-106.17-11.76-30.81-38.46-69-73.26-104.78l-1.68-1.73,1.67-1.74c36.53-38.04,70.04-80.74,99.61-126.92,3.71-5.79,4.93-12.68,3.46-19.4-1.48-6.72-5.48-12.47-11.28-16.18-11.98-7.65-27.94-4.14-35.58,7.82-27.88,43.48-59.67,83.73-94.5,119.62l-1.6,1.65-1.78-1.45c-65.08-53.16-134.16-82.44-194.51-82.44-36.94,0-70.81,10.75-100.66,31.94-68.95,48.99-95.51,143.19-78.94,279.98l.34,2.8-3.32.08c-3.21.23-6.23.45-9.19,1.21l-71.54,19.3c-29.07,7.84-80.65,44.01-67.84,124.83,2.87,17.81,8.35,45.46,16.76,84.52.58,2.72,1.45,5.51,2.71,8.78.08.18.18.35.27.53.19.37.39.74.54,1.1,1.01,2.32,2.16,4.52,3.51,6.7.19.31.39.57.59.84l.11.16c1.43,2.22,3.08,4.37,5.05,6.57l.13.15c.06.06.12.13.18.2,1.88,2.08,4.05,4.06,6.61,6.05l.71.55.19.88c9.27,41.9,18.14,80.1,19.16,84.42,1.9,8.06,5.66,15.69,10.88,22.07,5.23,6.38,33.82,38.25,82.79,38.25,8.89,0,17.97-1.12,26.98-3.33,42.52-10.66,76.14-31.39,77.55-32.27,1.75-1.05,3.31-2.29,4.96-3.6l2.65-2.11,1.47,2.44c14.49,24.15,37.15,34.92,73.48,34.92,26.94,0,62.29-6.06,111.25-19.06,53.62-14.23,182.47-55.35,220.62-129.84ZM287,137.66c21.22-15.12,44.38-22.47,70.8-22.47,47.11,0,102.69,23.5,156.49,66.18l2.35,1.86-2.25,1.98c-50.83,44.63-107.16,81.15-167.44,108.53-49.97,22.7-91.73,34.16-117.96,39.77l-2.84.61-.18-2.9c-5.82-95.57,14.72-160.69,61.03-193.55ZM105.36,600.3c-3.35-.21-6.62-.5-9.43-.84l-1.77-.21-.38-1.74c-5.57-25.82-12.91-60.96-16.23-81.77-2.54-15.99-2.59-38.42,11.63-54.49,8.61-9.73,18.31-12.44,18.72-12.55h0l74.01-19.93,37.19,149.66h-2.8c-14.22,5.7-29.69,11.02-45.98,15.81-15.16,4.47-31.77,6.73-49.36,6.73-3.97,0-8.04-.14-12.45-.42l-3.16-.25ZM254.47,706.06c-.29.18-29.06,17.66-63.15,26.19h-.02c-3.78.92-7.58,1.46-11.62,1.65-.52.04-1.07.08-1.61.08-.41.05-.82.08-1.24.08-2.79,0-5.59-.23-8.8-.74l-.21-.03c-.21,0-.38-.02-.55-.05-2.97-.51-5.96-1.32-9.18-2.5-.76-.23-1.42-.54-2-.8-.28-.13-.55-.25-.84-.37-1.98-.82-3.64-1.59-5.07-2.34-.91-.49-1.71-.97-2.51-1.45l-.18-.11c-1.38-.84-2.62-1.6-3.78-2.44-.58-.39-1.35-.92-2.13-1.57-1.06-.8-1.95-1.52-2.8-2.26-.2-.17-.39-.33-.57-.49-.28-.24-.55-.47-.81-.7l-.35-.33c-.66-.63-1.19-1.12-1.67-1.65-.17-.18-.31-.33-.44-.45l-.18-.17c-.59-.64-.93-1.08-.93-1.08l-.33-.43-.13-.54s-.21-.91-.58-2.46l-.1-.42c-.19-.79-.41-1.72-.66-2.86-.02-.06-.03-.13-.05-.19l-.07-.24-1.66-7.24c-2.41-10.49-6.06-26.35-10.19-44.65l-.69-3.03,3.11-.02c22.12-.12,43.1-3.08,62.38-8.77,14.58-4.3,29.4-9.35,44.06-15.02l2.47-.96,24.74,77.33-1.67,1.02ZM579.11,668.47c-32.75,17.35-73.26,32.66-117.16,44.3-43.95,11.68-76.01,17.36-98.02,17.36-26.33,0-30.07-4.75-35.94-26.89-.87-3.16-1.95-6.12-3.19-8.79-8.34-18.09-30.16-67.76-52.52-138.21l-.8-2.53,2.57-.65c44.06-11.21,156.32-29.34,246.93,44.2,36.86,29.96,52.55,53.48,59.23,67.94l.99,2.15-2.09,1.11ZM649.93,609.26h0c-4.56,8.92-12.3,18.17-23,27.48l-2.38,2.07-1.47-2.78c-13.7-25.86-37.12-52.36-69.61-78.75-47.47-38.56-104.08-60.58-168.25-65.44-51.89-3.94-97.09,4.2-125.87,11.72l-2.4.63-.65-2.39c-10.9-40.26-19.07-78.5-24.3-113.66l-.35-2.37,2.35-.45c52.01-9.98,187.28-46.07,319.74-165.32l1.79-1.61,1.68,1.73c29.75,30.63,52.31,62.52,61.87,87.5,4.99,13.05,6.71,24.55-19.51,43.69l-.37.22-.5.24c-1.04.51-2.01.98-2.88,1.59-19.46,13.33-77.31,49.55-111.16,57.08-6.72,1.48-12.46,5.5-16.17,11.3-3.69,5.79-4.91,12.67-3.42,19.37,2.6,11.71,13.17,20.21,25.14,20.21,1.73,0,3.63-.21,5.66-.62,21.2-4.71,49.02-16.79,82.63-35.9l2.19-1.25,1.23,2.2c37.21,66.69,60.82,125.23,69.25,147.31,5.19,13.52,4.81,24.36-1.25,36.22Z"/>
</svg>