<?xml version="1.0" encoding="UTF-8" standalone="no"?><!DOCTYPE svg PUBLIC "-//W3C//DTD SVG 1.1//EN" "http://www.w3.org/Graphics/SVG/1.1/DTD/svg11.dtd"><svg width="100%" height="100%" viewBox="0 0 706 231" version="1.1" xmlns="http://www.w3.org/2000/svg" xmlns:xlink="http://www.w3.org/1999/xlink" xml:space="preserve" xmlns:serif="http://www.serif.com/" style="fill-rule:evenodd;clip-rule:evenodd;stroke-linejoin:round;stroke-miterlimit:2;"><rect id="Artboard1" x="0" y="0" width="705.187" height="230.207" style="fill:none;"/><clipPath id="_clip1"><rect x="0" y="0" width="705.187" height="230.207"/></clipPath><g clip-path="url(#_clip1)"><path d="M185.039,176.363c-1.337,2.611 -3.602,5.272 -6.633,7.907c-3.383,-6.389 -9.564,-14.415 -20.772,-23.521c-32.702,-26.565 -71.887,-20.151 -87.652,-16.034c-2.962,-10.932 -5.504,-22.335 -7.173,-33.543c16.417,-3.15 55.979,-14.014 94.932,-49.075c8.805,9.056 15.4,18.457 18.143,25.623c1.186,3.119 2.328,6.338 -5.516,12.062c-0.37,0.188 -0.747,0.358 -1.098,0.602c-5.705,3.91 -22.705,14.559 -32.614,16.762c-4.506,0.998 -7.355,5.46 -6.357,9.966c0.866,3.897 4.324,6.558 8.158,6.558c0.596,0 1.211,-0.069 1.82,-0.195c7.669,-1.701 17.051,-6.376 24.663,-10.713c10.926,19.599 17.923,36.907 20.44,43.49c1.45,3.784 1.349,6.815 -0.339,10.11m-55.131,30.236c-12.959,3.445 -22.379,5.115 -28.805,5.115c-7.361,0 -8.246,-1.117 -9.916,-7.405c-0.257,-0.929 -0.584,-1.851 -0.985,-2.717c-4.311,-9.344 -10.154,-23.954 -15.501,-40.792c13.154,-3.351 45.913,-8.56 72.389,12.928c10.995,8.937 15.469,15.84 17.314,19.831c-9.395,4.977 -21.224,9.526 -34.497,13.041m-80.04,5.761c-1.167,0.282 -2.253,0.42 -3.295,0.471c-0.163,0.006 -0.326,0.019 -0.489,0.019c-0.1,0.013 -0.22,0.025 -0.32,0.025c-0.885,0 -1.707,-0.082 -2.491,-0.207c-0.075,-0.025 -0.144,-0.013 -0.22,-0.025c-0.929,-0.157 -1.795,-0.414 -2.598,-0.709c-0.289,-0.088 -0.527,-0.22 -0.797,-0.333c-0.502,-0.207 -0.992,-0.427 -1.437,-0.659c-0.264,-0.151 -0.515,-0.295 -0.759,-0.446c-0.377,-0.232 -0.741,-0.452 -1.067,-0.684c-0.22,-0.144 -0.408,-0.282 -0.596,-0.439c-0.308,-0.232 -0.565,-0.446 -0.803,-0.653c-0.144,-0.119 -0.276,-0.232 -0.402,-0.339c-0.232,-0.226 -0.402,-0.383 -0.552,-0.54c-0.063,-0.075 -0.126,-0.138 -0.182,-0.188c-0.144,-0.157 -0.232,-0.27 -0.232,-0.27c0,0 -0.063,-0.27 -0.169,-0.734c-0.063,-0.257 -0.138,-0.565 -0.22,-0.954c-0.013,-0.05 -0.025,-0.1 -0.038,-0.138c-0.64,-2.78 -1.958,-8.478 -3.508,-15.344c6.571,-0.038 12.846,-0.904 18.657,-2.623c4.569,-1.349 8.937,-2.855 13.091,-4.462l6.897,21.576c0,0 -8.384,5.133 -18.469,7.656m-24.299,-82.437l21.161,-5.705l10.587,42.618c-0.025,0 -0.056,0.013 -0.082,0.025c-3.357,1.349 -7.857,2.993 -13.606,4.682c-5.077,1.5 -10.11,1.964 -14.39,1.964c-1.293,0 -2.498,-0.05 -3.634,-0.126c-0.314,-0.025 -0.621,-0.044 -0.929,-0.069c-0.979,-0.063 -1.939,-0.151 -2.755,-0.245c-2.071,-9.602 -3.922,-18.695 -4.795,-24.149c-2.548,-16.034 8.441,-18.996 8.441,-18.996m53.205,-92.126c6.163,-4.387 12.865,-6.508 20.515,-6.508c15.532,0 32.012,8.472 45.831,19.417c-34.428,30.223 -69.132,40.497 -84.087,43.697c-1.481,-24.381 2.661,-45.906 17.741,-56.606m122.224,122.482c-3.947,-10.33 -11.466,-27.858 -21.776,-46.239c11.553,-8.052 17.584,-18.388 12.288,-32.276c-3.477,-9.119 -11.346,-20.465 -21.827,-31.24c10.217,-10.643 20.208,-23.069 29.552,-37.654c2.485,-3.885 1.349,-9.062 -2.542,-11.547c-3.897,-2.491 -9.056,-1.362 -11.541,2.535c-8.773,13.681 -18.218,25.322 -27.864,35.275c-16.925,-13.838 -37.761,-24.563 -57.999,-24.563c-10.436,0 -20.71,2.843 -30.205,9.589c-23.942,17.02 -27.707,50.054 -23.653,83.504c-0.013,0 -0.025,0 -0.038,0.013c-1.017,0.075 -2.021,0.138 -3.012,0.395l-21.168,5.711c-8.824,2.378 -24.481,13.317 -20.609,37.761c0.835,5.184 2.454,13.373 4.964,25.04c0.207,0.948 0.502,1.851 0.847,2.736c0.075,0.157 0.169,0.314 0.238,0.477c0.32,0.734 0.684,1.418 1.092,2.084c0.069,0.107 0.138,0.207 0.213,0.308c0.464,0.722 0.992,1.393 1.563,2.033c0.031,0.038 0.056,0.063 0.088,0.1c0.628,0.697 1.318,1.312 2.058,1.883c2.824,12.777 5.46,24.098 5.667,24.983c0.59,2.498 1.745,4.839 3.364,6.828c1.588,1.933 10.279,11.579 25.065,11.579c2.705,0 5.454,-0.339 8.152,-1.004c12.231,-3.063 22.071,-8.955 23.157,-9.633c0.596,-0.358 1.123,-0.784 1.663,-1.211c4.449,7.412 11.535,10.687 22.366,10.687c8.541,0 19.392,-2.021 33.091,-5.661c36.92,-9.796 78.885,-30.851 66.804,-62.493" style="fill:#ea1b24;fill-rule:nonzero;"/><path d="M464.519,182.821c0.161,9.05 -7.048,16.513 -16.091,16.667l-187.513,-19.505c-11.343,-1.529 -16.513,-7.035 -16.68,-16.078l-0.582,-31.299c-0.161,-9.05 7.042,-16.526 16.091,-16.68l187.084,-3.608c9.05,-0.154 16.52,7.035 16.687,16.091l1.004,54.412Zm-104.003,-10.369l0.37,12.294c0.609,0.653 1.236,1.042 1.851,1.199c0.621,0.151 1.199,0.138 1.713,-0.025c0.521,-0.169 0.941,-0.452 1.236,-0.853c0.314,-0.408 0.489,-0.822 0.515,-1.23c-0.395,-3.414 -0.54,-6.778 -0.452,-10.035c0.088,-3.276 0.32,-6.508 0.653,-9.759c0.351,-3.245 0.772,-6.508 1.236,-9.765c0.477,-3.263 0.879,-6.608 1.236,-10.028c-1.086,-0.948 -2.065,-1.45 -2.918,-1.506c-0.86,-0.075 -1.494,0.295 -1.914,1.067c-0.414,0.784 -0.791,2.021 -1.148,3.709c-0.358,1.707 -0.734,3.596 -1.155,5.667c-0.402,2.084 -0.904,4.236 -1.468,6.47c-0.584,2.24 -1.261,4.293 -2.071,6.131c-0.797,1.832 -1.732,3.383 -2.818,4.619c-1.079,1.224 -2.378,1.864 -3.91,1.902c-2.027,0.107 -3.615,-0.458 -4.738,-1.694c-1.123,-1.211 -1.933,-2.793 -2.422,-4.732c-0.489,-1.933 -0.709,-4.129 -0.69,-6.571c0.038,-2.422 0.207,-4.813 0.515,-7.179c0.301,-2.353 0.659,-4.55 1.061,-6.545c0.408,-2.002 0.728,-3.546 0.954,-4.644c-1.876,-0.138 -3.295,0.414 -4.305,1.65c-1.017,1.249 -1.738,2.761 -2.209,4.55c-0.471,1.801 -0.759,3.69 -0.879,5.648c-0.126,1.964 -0.238,3.602 -0.339,4.914c-0.245,3.339 -0.088,6.276 0.483,8.83c0.565,2.548 1.381,4.669 2.454,6.345c1.061,1.682 2.36,2.943 3.891,3.79c1.538,0.86 3.15,1.274 4.857,1.249c1.694,-0.025 3.445,-0.489 5.24,-1.399c1.801,-0.904 3.521,-2.253 5.171,-4.067Zm-60.857,-19.327c-0.188,2.366 -0.031,4.964 0.446,7.794c0.477,2.818 1.305,5.466 2.523,7.939c1.199,2.479 2.793,4.587 4.757,6.338c1.983,1.757 4.38,2.724 7.211,2.931c3.797,0.038 7.029,-0.502 9.664,-1.632c2.661,-1.111 4.763,-2.586 6.351,-4.424c1.581,-1.826 2.699,-3.935 3.332,-6.288c0.634,-2.366 0.835,-4.801 0.628,-7.305c-0.232,-2.485 -0.81,-4.964 -1.776,-7.405c-0.948,-2.41 -2.24,-4.619 -3.834,-6.589c-1.607,-1.977 -3.477,-3.627 -5.642,-4.951c-2.159,-1.337 -4.512,-2.146 -7.079,-2.441c-2.322,-0.182 -4.449,0.144 -6.395,0.966c-1.933,0.822 -3.634,1.964 -5.096,3.458c-1.45,1.481 -2.623,3.251 -3.502,5.259c-0.897,2.008 -1.418,4.129 -1.588,6.351Zm5.002,1.211c0.301,-2.008 0.734,-3.809 1.287,-5.416c0.552,-1.607 1.274,-2.981 2.184,-4.111c0.891,-1.123 1.939,-1.958 3.144,-2.535c1.211,-0.577 2.661,-0.822 4.318,-0.734c2.667,0.389 5.039,1.431 7.11,3.113c2.084,1.682 3.765,3.665 5.039,5.93c1.268,2.284 2.046,4.707 2.341,7.292c0.289,2.592 -0.025,4.977 -0.923,7.161c-0.897,2.196 -2.504,4.035 -4.788,5.491c-2.297,1.481 -5.372,2.278 -9.231,2.391c-2.422,-0.182 -4.362,-0.91 -5.811,-2.184c-1.462,-1.274 -2.548,-2.818 -3.257,-4.657c-0.728,-1.839 -1.18,-3.784 -1.356,-5.88c-0.169,-2.084 -0.182,-4.048 -0.056,-5.861Zm-17.202,-29.57l-2.174,52.601c0.377,1.042 0.866,1.751 1.481,2.134c0.596,0.377 1.192,0.489 1.795,0.333c0.59,-0.163 1.123,-0.54 1.607,-1.142c0.471,-0.602 0.753,-1.349 0.803,-2.253l2.303,-51.655l20.176,-2.203c1.186,-0.27 1.996,-0.653 2.441,-1.155c0.452,-0.489 0.591,-1.001 0.571,-1.506c-0.057,-1.445 -1.346,-2.323 -2.335,-2.303c-2.29,0 -8.146,0.646 -12.168,0.904c-4.029,0.245 -7.92,0.527 -11.704,0.835c-3.772,0.295 -7.412,0.59 -10.92,0.885c-3.477,0.301 -6.721,0.659 -9.69,1.086c-0.64,0.37 -1.092,0.759 -1.356,1.205c-0.264,0.427 -0.389,0.879 -0.395,1.337c-0.006,0.452 0.119,0.853 0.402,1.211c0.276,0.345 0.684,0.59 1.224,0.734c1.318,0.151 2.768,0.151 4.343,-0.013c1.594,-0.157 13.483,-1.067 13.596,-1.034Zm112.082,59.034c4.409,3.334 8.67,3.03 8.67,3.03c3.044,0.034 7.449,-1.109 9.617,-2.34c2.159,-1.23 3.765,-2.661 4.769,-4.318c1.004,-1.638 1.481,-3.395 1.387,-5.259c-0.094,-1.858 -0.628,-3.552 -1.619,-5.096l7.776,-0.333c0.559,-0.013 0.992,-0.257 1.318,-0.734c0.314,-0.489 0.42,-1.004 0.333,-1.581c-0.088,-0.565 -0.345,-1.105 -0.784,-1.619c-0.452,-0.515 -1.13,-0.86 -2.09,-1.029l-8.573,0.722c-1.155,-0.891 -2.353,-1.945 -3.602,-3.163c-1.268,-1.211 -2.385,-2.46 -3.37,-3.747c-1.004,-1.299 -1.782,-2.56 -2.347,-3.841c-0.559,-1.249 -0.734,-2.397 -0.533,-3.414c0.207,-1.035 0.891,-1.889 2.046,-2.579c1.174,-0.709 3,-1.111 5.504,-1.236c1.217,0.088 2.153,0.308 2.843,0.64c0.684,0.326 1.224,0.734 1.619,1.224c0.389,0.489 0.709,1.042 0.948,1.669c0.22,0.621 0.464,1.274 0.728,1.958c0.207,0.464 0.54,0.747 0.992,0.835c0.458,0.088 0.872,0.013 1.28,-0.207c0.389,-0.22 0.722,-0.552 0.992,-0.992c0.245,-0.446 0.308,-0.935 0.138,-1.512c0.069,-0.954 -0.126,-1.883 -0.615,-2.793c-0.496,-0.897 -1.155,-1.701 -2.002,-2.429c-0.828,-0.722 -1.738,-1.312 -2.742,-1.763c-1.004,-0.452 -1.977,-0.722 -2.881,-0.784c-2.912,-0.383 -5.359,-0.295 -7.317,0.245c-1.977,0.54 -3.489,1.362 -4.556,2.479c-1.073,1.098 -1.707,2.447 -1.908,3.991c-0.195,1.556 0.025,3.201 0.697,4.92c0.653,1.726 1.707,3.439 3.144,5.159c1.443,1.701 3.257,3.245 5.428,4.619c-3.238,-0.697 -6.213,-0.697 -8.924,-0.013c-2.724,0.678 -4.989,1.763 -6.79,3.251c-1.814,1.481 -3.088,3.219 -3.86,5.184c-0.747,1.971 -0.797,3.897 -0.126,5.774c0.678,1.889 2.163,3.54 4.412,5.083Zm-0.414,-9.57c0.126,-1.004 0.59,-1.914 1.406,-2.711c0.822,-0.81 1.864,-1.481 3.088,-2.021c1.23,-0.54 2.579,-0.941 4.01,-1.211c1.443,-0.27 2.862,-0.37 4.205,-0.295c1.368,0.075 2.598,0.345 3.715,0.772c1.098,0.439 1.927,1.092 2.479,1.939c1.324,1.87 1.795,3.565 1.399,5.083c-0.389,1.519 -1.255,2.793 -2.598,3.809c-1.356,1.01 -3.006,1.732 -4.958,2.134c-1.964,0.408 -3.872,0.433 -5.711,0.063c-1.851,-0.37 -3.458,-1.161 -4.807,-2.378c-1.356,-1.224 -2.096,-2.943 -2.228,-5.184Zm-23.497,4.768c0.314,0.59 0.772,0.929 1.362,1.054c0.596,0.119 1.167,0.088 1.676,-0.1c0.527,-0.195 0.96,-0.527 1.299,-1.004c0.345,-0.489 0.414,-1.054 0.213,-1.738c0.082,-1.217 0.044,-2.711 -0.126,-4.487c-0.157,-1.801 -0.358,-3.652 -0.565,-5.566c-0.207,-1.92 -0.402,-3.759 -0.577,-5.56c-0.169,-1.795 -0.207,-3.288 -0.107,-4.5c0.697,-1.826 1.588,-3.288 2.686,-4.368c1.092,-1.073 2.278,-1.845 3.546,-2.316c1.293,-0.452 2.592,-0.671 3.903,-0.646c1.324,0.013 2.56,0.207 3.753,0.577c1.192,0.364 2.24,0.828 3.125,1.381c0.904,0.54 1.563,1.117 1.971,1.707c0.703,0.05 1.287,-0.05 1.745,-0.282c0.446,-0.257 0.759,-0.59 0.954,-0.992c0.169,-0.42 0.245,-0.885 0.169,-1.374c-0.063,-0.477 -0.282,-0.935 -0.659,-1.374c-2.517,-2.316 -5.027,-3.772 -7.55,-4.362c-2.517,-0.602 -4.813,-0.64 -6.916,-0.113c-2.096,0.527 -3.885,1.45 -5.372,2.761c-1.506,1.299 -2.485,2.692 -2.95,4.18l0.628,-8.309c-0.238,-0.835 -0.665,-1.387 -1.255,-1.632c-0.571,-0.232 -1.161,-0.27 -1.732,-0.088c-0.577,0.182 -1.061,0.54 -1.45,1.079c-0.408,0.515 -0.577,1.167 -0.533,1.939c-0.195,2.56 -0.213,5.196 -0.063,7.901c0.157,2.699 0.383,5.466 0.703,8.315c0.333,2.83 0.678,5.761 1.067,8.748c0.383,2.993 0.734,6.056 1.054,9.169Z" style="fill:#ea1b24;"/><g><path d="M308.858,31.854l-29.42,63.309l-7.594,0l-29.502,-63.309l16.699,0l16.599,35.985l16.687,-35.985l16.53,0Z" style="fill:#ea1b24;fill-rule:nonzero;"/><rect x="316.054" y="31.942" width="16.605" height="63.221" style="fill:#ea1b24;"/><path d="M368.078,72.903l12.909,0l-6.414,-13.913l-6.495,13.913Zm-26.885,22.26l29.508,-63.221l7.499,0l29.759,63.221l-16.605,0l-3.878,-8.265l-25.881,0l-3.803,8.265l-16.599,0Z" style="fill:#ea1b24;fill-rule:nonzero;"/><path d="M432.943,78.64l7.01,0c8.265,0 15.005,-6.74 15.005,-15.005c0,-8.171 -6.74,-14.93 -15.005,-14.93l-7.01,0l0,29.935Zm-16.511,-46.697l23.44,-0c17.446,0 31.604,14.152 31.604,31.61c0,17.44 -14.158,31.61 -31.604,31.61l-23.44,0l0,-63.221Z" style="fill:#ea1b24;fill-rule:nonzero;"/><path d="M499.591,64.054l10.279,0c5.046,0 9.106,-3.96 9.106,-9.018c0,-5.064 -4.06,-9.112 -9.106,-9.112l-10.279,0l0,18.13Zm20.057,31.108l-9.777,-16.781l-10.279,0l0,16.781l-16.612,0l0,-63.221l26.634,-0c12.821,0 23.27,10.455 23.27,23.264c0,6.74 -2.95,12.809 -7.499,17.026l13.398,22.931l-19.134,0Z" style="fill:#ea1b24;fill-rule:nonzero;"/><rect x="546.91" y="31.942" width="16.605" height="63.221" style="fill:#ea1b24;"/><path d="M622.719,95.162l-29.847,-29.935l0,29.935l-16.605,0l0,-63.221l6.753,0l29.91,29.834l0,-29.834l16.618,0l0,63.221l-6.828,0Z" style="fill:#ea1b24;fill-rule:nonzero;"/><path d="M664.994,72.903l12.89,0l-6.401,-13.913l-6.489,13.913Zm-26.904,22.26l29.514,-63.221l7.499,0l29.753,63.221l-16.599,0l-3.885,-8.265l-25.874,0l-3.79,8.265l-16.618,0Z" style="fill:#ea1b24;fill-rule:nonzero;"/></g></g></svg>